<?xml version="1.0" standalone="no"?>
<!DOCTYPE svg PUBLIC "-//W3C//DTD SVG 20010904//EN"
 "http://www.w3.org/TR/2001/REC-SVG-20010904/DTD/svg10.dtd">
<svg version="1.0" xmlns="http://www.w3.org/2000/svg"
 width="400.000000pt" height="400.000000pt" viewBox="0 0 400.000000 400.000000"
 preserveAspectRatio="xMidYMid meet">
<metadata>
Created by potrace 1.11, written by Peter Selinger 2001-2013
</metadata>
<g transform="translate(0.000000,400.000000) scale(0.100000,-0.100000)"
fill="#000000" stroke="none">
<path d="M1795 3989 c-861 -90 -1578 -735 -1750 -1577 -44 -213 -55 -403 -35
-603 129 -1277 1399 -2107 2614 -1708 513 168 940 543 1176 1031 193 400 246
837 155 1280 -203 993 -1148 1682 -2160 1577z m275 -566 c-11 -17 -11 -17 -6
0 3 10 7 26 7 35 1 15 2 15 6 0 2 -10 -1 -25 -7 -35z m120 -116 c0 -7 -6 -22
-14 -33 -14 -18 -15 -18 -21 -1 -7 17 10 47 26 47 5 0 9 -6 9 -13z m-355 -47
c-3 -5 -12 -10 -18 -10 -7 0 -6 4 3 10 19 12 23 12 15 0z m215 -39 c0 -5 -7
-14 -15 -21 -16 -14 -18 -10 -9 14 6 17 24 22 24 7z m-280 -35 c0 -3 -4 -8
-10 -11 -5 -3 -10 -1 -10 4 0 6 5 11 10 11 6 0 10 -2 10 -4z m134 -148 c-23
-44 -30 -20 -8 29 12 26 18 33 21 21 2 -9 -4 -32 -13 -50z m115 -40 c-14 -50
-29 -71 -29 -41 0 25 29 97 36 90 3 -3 0 -25 -7 -49z m681 22 c0 -5 -5 -10
-11 -10 -5 0 -7 5 -4 10 3 6 8 10 11 10 2 0 4 -4 4 -10z m-1730 -55 c26 -19
54 -35 62 -35 7 0 36 -22 63 -50 27 -27 53 -50 58 -50 5 0 27 -15 50 -32 51
-40 59 -45 217 -126 69 -35 127 -68 128 -73 2 -5 9 -9 15 -9 7 0 45 -16 85
-35 40 -20 86 -38 102 -42 17 -3 30 -9 30 -14 0 -5 7 -9 15 -9 9 0 0 16 -25
43 -22 23 -43 46 -48 52 -4 5 0 17 10 27 21 21 8 29 112 -71 47 -45 55 -65 14
-37 -12 9 -27 16 -33 16 -5 0 4 -10 22 -21 25 -16 36 -18 50 -10 11 6 13 11 5
11 -7 0 -11 4 -7 9 3 5 1 12 -5 16 -5 3 -10 19 -10 36 0 16 -4 29 -8 29 -10 0
-34 71 -27 78 6 6 44 -78 45 -96 0 -7 5 -10 10 -7 6 4 10 -6 10 -21 0 -18 3
-25 10 -18 6 6 6 33 -1 74 -18 120 -21 182 -7 178 12 -4 27 -90 32 -170 0 -14
4 -24 9 -21 4 2 7 -9 7 -26 0 -16 4 -32 9 -35 5 -3 12 38 15 92 4 53 11 122
15 152 l9 55 2 -70 c2 -38 3 -77 2 -85 -14 -167 -14 -200 -3 -200 7 0 9 5 6
10 -3 6 -1 10 5 10 14 0 69 62 70 78 0 7 6 15 14 18 8 3 17 15 20 27 6 24 113
137 129 137 9 0 -18 -37 -44 -60 -3 -3 -18 -23 -34 -45 -17 -22 -34 -43 -40
-47 -5 -4 -6 -8 -1 -8 5 0 4 -6 -1 -12 -15 -20 -23 -48 -14 -48 4 0 21 12 37
27 45 43 127 103 140 103 6 0 14 9 17 20 6 22 39 39 44 23 2 -6 19 4 37 21 37
35 48 43 91 70 33 21 37 25 78 61 25 22 47 32 47 21 0 -2 -26 -23 -57 -47 -77
-59 -99 -77 -152 -125 -26 -22 -68 -58 -96 -80 -27 -21 -52 -43 -54 -47 -1 -4
-21 -19 -43 -33 -22 -14 -38 -28 -35 -30 6 -6 141 58 145 68 2 5 9 8 17 8 7 0
18 7 25 15 7 8 17 15 23 15 5 0 2 -9 -8 -20 -18 -20 -18 -20 14 -9 46 16 48 6
4 -17 -21 -10 -40 -22 -43 -25 -3 -4 -14 -9 -25 -12 -11 -4 -3 -4 17 -1 21 3
62 16 90 29 29 14 63 25 76 25 13 0 32 5 43 11 12 6 28 8 37 4 13 -5 10 -9
-14 -21 -16 -9 -33 -17 -39 -19 -23 -6 -76 -28 -111 -46 -21 -10 -45 -19 -52
-19 -12 0 -12 -3 -2 -15 10 -12 6 -13 -27 -9 l-38 4 35 -13 c22 -9 49 -11 75
-6 172 31 177 31 188 20 8 -8 3 -11 -20 -11 -18 0 -34 -4 -37 -8 -3 -5 -38
-14 -78 -21 -40 -7 -88 -17 -107 -23 -18 -5 -60 -10 -93 -9 -41 0 -57 -3 -52
-11 5 -7 3 -8 -6 -3 -8 5 -17 2 -24 -7 -10 -14 -99 -31 -91 -17 3 3 -16 6 -40
7 -32 0 -45 -4 -45 -14 0 -8 3 -14 8 -14 4 0 8 -35 10 -77 1 -43 7 -82 12 -87
6 -6 10 -34 10 -63 0 -28 4 -62 10 -75 5 -13 15 -57 20 -98 29 -204 52 -336
63 -346 4 -4 7 -20 7 -36 0 -27 7 -64 36 -180 8 -32 14 -70 14 -84 0 -15 4
-44 10 -65 6 -22 15 -58 21 -81 15 -56 42 -118 51 -118 5 0 8 -7 8 -15 0 -9 9
-15 25 -15 15 0 25 -6 25 -14 0 -8 10 -16 23 -20 23 -5 57 -65 57 -99 0 -9 4
-18 9 -21 5 -3 11 -23 14 -43 14 -96 30 -169 38 -177 5 -6 9 -24 9 -41 0 -16
4 -45 9 -63 6 -20 6 -32 0 -32 -5 0 -9 -11 -9 -24 0 -13 -7 -27 -16 -30 -20
-8 -54 2 -54 15 0 6 -11 21 -25 35 -14 14 -25 31 -25 39 0 8 -4 15 -10 15 -5
0 -10 7 -10 15 0 8 -3 15 -7 15 -5 0 -17 21 -27 48 -11 26 -22 49 -25 52 -3 3
-15 32 -26 65 -10 33 -22 62 -25 65 -15 11 -31 110 -36 207 -2 57 -8 113 -14
123 -5 10 -10 35 -10 54 0 20 -4 36 -10 36 -5 0 -10 17 -10 38 0 33 -31 195
-44 233 -7 20 -15 62 -27 154 -6 44 -15 89 -19 100 -9 21 -13 45 -30 185 -6
47 -15 95 -20 108 -6 13 -10 40 -10 60 0 28 -3 33 -10 22 -8 -12 -10 -10 -10
8 0 13 -4 21 -9 18 -5 -3 -8 5 -7 18 0 13 5 22 10 19 5 -4 6 6 2 22 -4 15 -9
41 -12 59 -3 17 -10 41 -16 53 -10 21 -14 19 -74 -45 -35 -36 -64 -70 -64 -74
0 -4 -7 -8 -15 -8 -8 0 -15 -4 -15 -8 0 -13 -77 -92 -90 -92 -23 0 -7 25 60
93 80 83 151 169 145 175 -3 3 -10 0 -17 -5 -19 -16 -101 -24 -118 -13 -11 7
-5 9 20 5 29 -4 31 -3 10 4 -14 5 -89 9 -166 10 -78 1 -157 4 -175 8 l-34 7
30 7 c23 5 15 7 -30 8 -122 2 -205 7 -211 14 -4 4 8 7 27 7 27 0 31 3 19 11
-11 8 -8 9 15 4 36 -9 202 -24 338 -32 67 -3 97 -1 97 6 0 6 -20 11 -49 11
-28 0 -51 5 -53 11 -2 6 -16 12 -31 12 -15 0 -24 3 -21 8 3 5 -3 10 -13 11
-10 0 -31 3 -48 5 -16 2 -48 5 -70 6 -22 2 -47 6 -55 9 -8 4 -35 14 -60 22
-53 17 -99 36 -195 81 -165 76 -171 80 -148 83 12 2 38 -4 58 -14 26 -12 38
-14 49 -5 15 13 37 5 182 -65 51 -24 99 -44 107 -44 9 0 19 -4 22 -10 3 -5 13
-10 21 -10 8 0 14 5 14 10 0 6 -4 10 -10 10 -13 0 -89 53 -90 62 0 4 27 -9 61
-28 33 -18 64 -34 68 -34 5 0 29 -11 55 -25 26 -14 59 -25 75 -25 15 0 31 -4
37 -9 5 -5 29 -11 54 -14 25 -3 57 -8 73 -12 18 -5 27 -3 27 5 0 7 -8 9 -21 5
-15 -5 -19 -4 -15 4 4 6 3 11 -3 11 -9 0 -71 27 -196 84 -27 13 -68 32 -90 41
-22 10 -58 30 -80 45 -77 53 -146 90 -166 90 -11 0 -50 30 -90 70 -38 39 -75
70 -82 70 -17 1 -135 120 -118 120 7 0 35 -16 61 -35z m715 -62 c4 -43 16
-107 27 -143 32 -99 32 -100 -6 -25 -25 49 -36 83 -36 115 0 25 -7 69 -14 97
-13 50 -13 52 4 43 14 -8 20 -27 25 -87z m1130 57 c-3 -5 -10 -10 -16 -10 -5
0 -9 5 -9 10 0 6 7 10 16 10 8 0 12 -4 9 -10z m-220 -20 c-3 -5 -11 -10 -16
-10 -6 0 -7 5 -4 10 3 6 11 10 16 10 6 0 7 -4 4 -10z m169 -15 c-4 -8 -10 -15
-15 -15 -4 0 -35 -26 -67 -59 -53 -53 -112 -100 -112 -89 0 10 98 108 108 108
7 0 12 7 12 15 0 8 5 15 11 15 6 0 22 9 36 20 31 24 34 25 27 5z m-194 -9 c0
-2 -11 -11 -25 -20 -28 -19 -33 -15 -9 8 14 15 34 22 34 12z m-652 -56 c-1
-27 -6 -50 -10 -50 -4 0 -8 23 -8 50 0 28 5 50 10 50 6 0 9 -22 8 -50z m562
-19 c0 -5 -7 -12 -16 -15 -14 -5 -15 -4 -4 9 14 17 20 19 20 6z m87 -97 c-3
-3 -12 -4 -19 -1 -8 3 -5 6 6 6 11 1 17 -2 13 -5z m-38 -13 c9 -6 10 -11 2
-15 -13 -8 -31 1 -31 15 0 11 11 11 29 0z m-1299 -32 c16 -18 30 -34 30 -36 0
-8 -68 51 -69 60 -2 13 9 7 39 -24z m1260 9 c0 -7 -14 -22 -30 -33 -16 -11
-30 -26 -30 -32 0 -7 -4 -13 -10 -13 -5 0 -10 4 -10 8 0 11 29 49 30 38 0 -5
9 3 21 18 23 29 29 32 29 14z m-760 -69 c0 -8 -7 -6 -20 6 -11 10 -20 27 -20
38 0 18 2 17 20 -6 11 -14 20 -31 20 -38z m1055 24 c-11 -3 -24 -9 -29 -14 -6
-5 -23 -9 -38 -9 -15 0 -28 -4 -28 -10 0 -5 -10 -10 -22 -10 -13 0 -18 4 -12
9 14 14 96 40 124 39 20 0 21 -1 5 -5z m-1495 -23 c0 -5 -2 -10 -4 -10 -3 0
-8 5 -11 10 -3 6 -1 10 4 10 6 0 11 -4 11 -10z m1500 -60 c0 -5 -4 -10 -10
-10 -5 0 -10 5 -10 10 0 6 5 10 10 10 6 0 10 -4 10 -10z m-70 -30 c-19 -13
-30 -13 -30 0 0 6 10 10 23 10 18 0 19 -2 7 -10z m-1706 -36 c17 -6 22 -24 8
-24 -5 0 -17 7 -28 15 -19 15 -8 20 20 9z m1539 -1 c-7 -2 -19 -2 -25 0 -7 3
-2 5 12 5 14 0 19 -2 13 -5z m142 -13 c-3 -5 -18 -9 -33 -9 l-27 1 30 8 c17 4
31 8 33 9 2 0 0 -3 -3 -9z m-1493 -39 c35 -16 39 -21 25 -26 -19 -8 -144 29
-162 47 -17 18 89 1 137 -21z m1693 19 c-3 -5 -15 -10 -26 -10 -10 0 -19 5
-19 10 0 6 12 10 26 10 14 0 23 -4 19 -10z m-600 -120 c4 -6 -14 -10 -47 -9
-39 0 -48 3 -33 9 28 12 73 12 80 0z m232 -6 c-3 -3 -12 -4 -19 -1 -8 3 -5 6
6 6 11 1 17 -2 13 -5z m-827 -23 c0 -12 -108 -37 -117 -28 -11 12 4 19 48 23
23 2 45 6 47 9 9 8 22 6 22 -4z m50 5 c0 -3 -4 -8 -10 -11 -5 -3 -10 -1 -10 4
0 6 5 11 10 11 6 0 10 -2 10 -4z m217 -118 c-3 -8 -6 -5 -6 6 -1 11 2 17 5 13
3 -3 4 -12 1 -19z m20 -130 c-3 -8 -6 -5 -6 6 -1 11 2 17 5 13 3 -3 4 -12 1
-19z m-360 -36 c-20 -20 -27 -23 -27 -10 0 15 41 50 49 42 3 -3 -7 -17 -22
-32z m153 34 c0 -3 -4 -8 -10 -11 -5 -3 -10 -1 -10 4 0 6 5 11 10 11 6 0 10
-2 10 -4z m-210 -63 c0 -12 -73 -73 -87 -73 -6 0 -19 -7 -28 -16 -9 -9 -18
-14 -22 -11 -3 3 17 19 43 36 27 16 56 39 64 50 14 21 30 28 30 14z m437 -65
c-3 -8 -6 -5 -6 6 -1 11 2 17 5 13 3 -3 4 -12 1 -19z m-391 -165 c-10 -10 -19
5 -10 18 6 11 8 11 12 0 2 -7 1 -15 -2 -18z"/>
<path d="M1188 2753 c7 -3 16 -2 19 1 4 3 -2 6 -13 5 -11 0 -14 -3 -6 -6z"/>
<path d="M1094 2622 c10 -12 28 -24 40 -28 28 -8 130 -55 136 -63 11 -14 69
-28 81 -20 10 6 8 9 -9 9 -21 0 -61 17 -72 31 -3 4 -39 21 -80 39 -41 17 -84
37 -95 42 -20 11 -20 10 -1 -10z"/>
<path d="M1770 2569 c0 -8 9 -20 20 -27 11 -7 20 -8 20 -4 0 5 -9 17 -20 27
-15 14 -20 15 -20 4z"/>
<path d="M1828 2373 c6 -2 18 -2 25 0 6 3 1 5 -13 5 -14 0 -19 -2 -12 -5z"/>
</g>
</svg>
